<?xml version="1.0" encoding="utf-8"?>
<!-- Generator: Adobe Illustrator 27.4.0, SVG Export Plug-In . SVG Version: 6.00 Build 0)  -->
<svg version="1.1" id="Layer_1" xmlns="http://www.w3.org/2000/svg" xmlns:xlink="http://www.w3.org/1999/xlink" x="0px" y="0px"
	 viewBox="0 0 8192 8192" style="enable-background:new 0 0 8192 8192;" xml:space="preserve">
<style type="text/css">
	.st0{fill:none;stroke:#000000;stroke-width:1.9876;stroke-miterlimit:2.4845;}
	.st1{fill:none;stroke:#000000;stroke-width:10;stroke-miterlimit:2.4845;}
</style>
<g id="Layer_1_00000119080287147184923230000002775172211040504722_">
	<g id="svg5">
		
			<image style="overflow:visible;enable-background:new    ;" width="5037" height="5037" id="image7888" xlink:href="field.png"  transform="matrix(1.6263 0 0 1.6263 144.9667 -0.1134)">
		</image>
	</g>
	<g id="Layer_2_00000171694284037990801700000010548255363070516378_">
		<path class="st0" d="M145-0.1c0,0,8229.9,8191.9,8191.9,8191.9"/>
	</g>
</g>
<g id="BlueTriangle">
	<path class="st1" d="M822.9,6139.4c0,0,2452.7,46,3366.5-97.7"/>
	<path class="st1" d="M4189.3,6041.6c0,0-1427.1,126-1933.7,101.9"/>
	<path class="st1" d="M4189.3,6041.6c0,0-934.2,80.5-1249,88.3c-314.7,7.8-685.1-203.2-684.7-673.6s0-678.4,0-678.4"/>
	<path class="st1" d="M4189.3,6041.6c0,0-1084.1,80.7-1249,88.3c-164.8,7.6-675.7,158.6-684.7,665.2c-9,506.5,0,705.5,0,705.5"/>
</g>
<g id="RedTriangle">
	<path class="st1" d="M4189.3,2146.2c0,0-1084.1-80.7-1249-88.3c-164.8-7.6-675.7-158.6-684.7-665.2c-9-506.5,0-705.5,0-705.5"/>
	<path class="st1" d="M4189.3,2146.2c0,0-934.2-80.5-1249-88.3c-314.7-7.8-685.1,203.2-684.7,673.6s0,678.4,0,678.4"/>
	<path class="st1" d="M822.9,2048.4c0,0,2452.7-46,3366.5,97.7"/>
	<path class="st1" d="M4189.3,2146.2c0,0-1427.1-126-1933.7-101.9"/>
</g>
<g id="Junctions">
	<path class="st1" d="M4189.3,6041.6c0,0-550.7-11.4-564.9-587.6c-14.2-576.2-402-974.9-402-974.9"/>
	<path class="st1" d="M4189.3,2146.2c0,0-550.7,11.4-564.9,587.6c-14.2,576.2-402,974.9-402,974.9"/>
	<path class="st1" d="M4189.3,6041.7c0,0-353.7,81.1-623.8-58s-221.7-112.6-221.7-112.6"/>
	<path class="st1" d="M4189.3,2143.7c0,0-353.7-81.1-623.8,58s-221.7,112.6-221.7,112.6"/>
</g>
<path class="st1" d="M11042.7,6279.3"/>
<path class="st0" d="M677.9,6146.7"/>
</svg>
