<?xml version="1.0" encoding="utf-8"?>
<!-- Generator: Adobe Illustrator 27.4.1, SVG Export Plug-In . SVG Version: 6.00 Build 0)  -->
<svg version="1.1" id="Layer_1" xmlns="http://www.w3.org/2000/svg" xmlns:xlink="http://www.w3.org/1999/xlink" x="0px" y="0px"
	 viewBox="0 0 8192 8192" style="enable-background:new 0 0 8192 8192;" xml:space="preserve">
<style type="text/css">
	.st0{fill:none;stroke:#000000;stroke-width:1.9876;stroke-miterlimit:2.4845;}
	.st1{fill:none;stroke:#000000;stroke-width:10;stroke-miterlimit:2.4845;}
</style>
<g id="Layer_1_00000119080287147184923230000002775172211040504722_">
	<g id="svg5">
		
			<image style="overflow:visible;enable-background:new    ;" width="5037" height="5037" id="image7888" xlink:href="field.png"  transform="matrix(1.6263 0 0 1.6263 0 7.793887e-06)">
		</image>
	</g>
	<g id="Layer_2_00000171694284037990801700000010548255363070516378_">
		<path class="st0" d="M0,0c0,0,8229.9,8191.9,8191.9,8191.9"/>
	</g>
</g>
<g id="BlueTriangle">
	<path class="st1" d="M677.9,6139.5c0,0,2345.8,46,3219.8-97.7"/>
	<path class="st1" d="M3897.7,6041.7c0,0-1364.9,126-1849.5,101.9"/>
	<path class="st1" d="M3897.7,6041.7c0,0-893.5,80.5-1194.6,88.3c-301,7.8-655.3-203.2-654.9-673.6c0.4-470.4,0-678.4,0-678.4"/>
	<path class="st1" d="M3897.7,6041.7c0,0-1036.9,80.7-1194.6,88.3c-157.6,7.6-646.3,158.6-654.9,665.2c-8.6,506.5,0,705.5,0,705.5"
		/>
</g>
<g id="RedTriangle">
	<path class="st1" d="M3897.7,2146.3c0,0-1036.9-80.7-1194.6-88.3c-157.6-7.6-646.3-158.6-654.9-665.2c-8.6-506.5,0-705.5,0-705.5"
		/>
	<path class="st1" d="M3897.7,2146.3c0,0-893.5-80.5-1194.6-88.3c-301-7.8-655.3,203.2-654.9,673.6c0.4,470.4,0,678.4,0,678.4"/>
	<path class="st1" d="M677.9,2048.5c0,0,2345.8-46,3219.8,97.7"/>
	<path class="st1" d="M3897.7,2146.3c0,0-1364.9-126-1849.5-101.9"/>
</g>
<g id="Junctions">
	<path class="st1" d="M3897.7,6041.7c0,0-526.7-11.4-540.3-587.6s-384.5-974.9-384.5-974.9"/>
	<path class="st1" d="M3897.7,2146.3c0,0-526.7,11.4-540.3,587.6s-384.5,974.9-384.5,974.9"/>
	<path class="st1" d="M3897.7,6041.8c0,0-338.3,81.1-596.6-58s-212-112.6-212-112.6"/>
	<path class="st1" d="M3897.7,2143.8c0,0-338.3-81.1-596.6,58c-258.3,139.1-212,112.6-212,112.6"/>
</g>
</svg>
