<?xml version="1.0" encoding="utf-8"?>
<!-- Generator: Adobe Illustrator 27.4.0, SVG Export Plug-In . SVG Version: 6.00 Build 0)  -->
<svg version="1.1" xmlns="http://www.w3.org/2000/svg" xmlns:xlink="http://www.w3.org/1999/xlink" x="0px" y="0px"
	 viewBox="0 0 8192 8192" style="enable-background:new 0 0 8192 8192;" xml:space="preserve">
<style type="text/css">
	.st0{fill:none;stroke:#000000;stroke-width:1.9876;stroke-miterlimit:2.4845;}
</style>
<g id="svg5">
	
		<image style="overflow:visible;enable-background:new    ;" width="5037" height="5037" id="image7888" xlink:href="field.png"  transform="matrix(1.6263 0 0 1.6263 0 7.793887e-06)">
	</image>
</g>
<g id="Layer_2">
	<path class="st0" d="M0,0c0,0,8229.9,8191.9,8191.9,8191.9"/>
</g>
<g id="Layer_3">
	<path class="st0" d="M338.9,6141.2c0,0,912.9,6.6,1261.7,0s449.2-651.3,443.9-698.9s-21.1-734.5,676.4-718.7
		c697.5,15.9,681.7,665.8,681.7,665.8s-153.2,748.3,676.4,754.6c829.7,6.3,692.3-544.6,702.8-710.4c10.6-165.8,0-726.5-718.7-710.4
		c-718.7,16.1-750.4,638.1-729.2,710.2c21.1,72.1,132.1,683.2-618.3,710.6c-750.4,27.4-729.2-710.6-729.2-710.6
		s116.3-836.8-628.8-673S686.4,5434,686.4,5434S677.9,6132,338.9,6141.2z"/>
</g>
</svg>
